<mxfile host="app.diagrams.net" agent="Mozilla/5.0 (Windows NT 10.0; Win64; x64) AppleWebKit/537.36 (KHTML, like Gecko) Chrome/131.0.0.0 Safari/537.36" version="25.0.3">
  <diagram id="C5RBs43oDa-KdzZeNtuy" name="Page-1">
    <mxGraphModel dx="1238" dy="722" grid="1" gridSize="10" guides="1" tooltips="1" connect="1" arrows="1" fold="1" page="1" pageScale="1" pageWidth="827" pageHeight="1169" math="0" shadow="0">
      <root>
        <mxCell id="WIyWlLk6GJQsqaUBKTNV-0" />
        <mxCell id="WIyWlLk6GJQsqaUBKTNV-1" parent="WIyWlLk6GJQsqaUBKTNV-0" />
        <mxCell id="-fCuam2S3aZaANYgXB34-0" value="" style="rounded=0;whiteSpace=wrap;html=1;fillColor=#cce5ff;strokeColor=#36393d;" vertex="1" parent="WIyWlLk6GJQsqaUBKTNV-1">
          <mxGeometry x="190" y="80" width="430" height="550" as="geometry" />
        </mxCell>
        <mxCell id="-fCuam2S3aZaANYgXB34-10" style="rounded=0;orthogonalLoop=1;jettySize=auto;html=1;entryX=0;entryY=0.5;entryDx=0;entryDy=0;fontSize=12;startSize=8;endSize=8;endArrow=none;endFill=0;sourcePerimeterSpacing=0;" edge="1" parent="WIyWlLk6GJQsqaUBKTNV-1" source="-fCuam2S3aZaANYgXB34-1" target="-fCuam2S3aZaANYgXB34-6">
          <mxGeometry relative="1" as="geometry" />
        </mxCell>
        <mxCell id="-fCuam2S3aZaANYgXB34-12" style="rounded=0;orthogonalLoop=1;jettySize=auto;html=1;entryX=0;entryY=0.5;entryDx=0;entryDy=0;fontSize=12;startSize=8;endSize=8;endArrow=none;endFill=0;sourcePerimeterSpacing=0;" edge="1" parent="WIyWlLk6GJQsqaUBKTNV-1" source="-fCuam2S3aZaANYgXB34-1" target="-fCuam2S3aZaANYgXB34-7">
          <mxGeometry relative="1" as="geometry" />
        </mxCell>
        <mxCell id="-fCuam2S3aZaANYgXB34-13" style="rounded=0;orthogonalLoop=1;jettySize=auto;html=1;entryX=0;entryY=0.5;entryDx=0;entryDy=0;fontSize=12;startSize=8;endSize=8;endArrow=none;endFill=0;sourcePerimeterSpacing=0;" edge="1" parent="WIyWlLk6GJQsqaUBKTNV-1" source="-fCuam2S3aZaANYgXB34-1" target="-fCuam2S3aZaANYgXB34-8">
          <mxGeometry relative="1" as="geometry" />
        </mxCell>
        <mxCell id="-fCuam2S3aZaANYgXB34-14" style="rounded=0;orthogonalLoop=1;jettySize=auto;html=1;entryX=0;entryY=0.5;entryDx=0;entryDy=0;fontSize=12;startSize=8;endSize=8;endArrow=none;endFill=0;sourcePerimeterSpacing=0;" edge="1" parent="WIyWlLk6GJQsqaUBKTNV-1" source="-fCuam2S3aZaANYgXB34-1" target="-fCuam2S3aZaANYgXB34-11">
          <mxGeometry relative="1" as="geometry" />
        </mxCell>
        <mxCell id="-fCuam2S3aZaANYgXB34-1" value="Employee" style="shape=umlActor;verticalLabelPosition=bottom;verticalAlign=top;html=1;outlineConnect=0;" vertex="1" parent="WIyWlLk6GJQsqaUBKTNV-1">
          <mxGeometry x="100" y="240" width="30" height="60" as="geometry" />
        </mxCell>
        <mxCell id="-fCuam2S3aZaANYgXB34-17" style="rounded=0;orthogonalLoop=1;jettySize=auto;html=1;entryX=1;entryY=0.5;entryDx=0;entryDy=0;fontSize=12;startSize=8;endSize=8;endArrow=none;endFill=0;sourcePerimeterSpacing=0;" edge="1" parent="WIyWlLk6GJQsqaUBKTNV-1" source="-fCuam2S3aZaANYgXB34-2" target="-fCuam2S3aZaANYgXB34-16">
          <mxGeometry relative="1" as="geometry" />
        </mxCell>
        <mxCell id="-fCuam2S3aZaANYgXB34-19" style="rounded=0;orthogonalLoop=1;jettySize=auto;html=1;entryX=1;entryY=0.5;entryDx=0;entryDy=0;fontSize=12;startSize=8;endSize=8;endArrow=none;endFill=0;sourcePerimeterSpacing=0;" edge="1" parent="WIyWlLk6GJQsqaUBKTNV-1" source="-fCuam2S3aZaANYgXB34-2" target="-fCuam2S3aZaANYgXB34-18">
          <mxGeometry relative="1" as="geometry" />
        </mxCell>
        <mxCell id="-fCuam2S3aZaANYgXB34-2" value="Manager" style="shape=umlActor;verticalLabelPosition=bottom;verticalAlign=top;html=1;outlineConnect=0;" vertex="1" parent="WIyWlLk6GJQsqaUBKTNV-1">
          <mxGeometry x="670" y="180" width="30" height="60" as="geometry" />
        </mxCell>
        <mxCell id="-fCuam2S3aZaANYgXB34-6" value="Make Request" style="ellipse;whiteSpace=wrap;html=1;fillColor=#f5f5f5;fontColor=#333333;strokeColor=#666666;" vertex="1" parent="WIyWlLk6GJQsqaUBKTNV-1">
          <mxGeometry x="230" y="140" width="100" height="60" as="geometry" />
        </mxCell>
        <mxCell id="-fCuam2S3aZaANYgXB34-7" value="Edit Request" style="ellipse;whiteSpace=wrap;html=1;fillColor=#f5f5f5;fontColor=#333333;strokeColor=#666666;" vertex="1" parent="WIyWlLk6GJQsqaUBKTNV-1">
          <mxGeometry x="230" y="210" width="100" height="60" as="geometry" />
        </mxCell>
        <mxCell id="-fCuam2S3aZaANYgXB34-8" value="Cancel Request" style="ellipse;whiteSpace=wrap;html=1;fillColor=#f5f5f5;fontColor=#333333;strokeColor=#666666;" vertex="1" parent="WIyWlLk6GJQsqaUBKTNV-1">
          <mxGeometry x="230" y="350" width="100" height="60" as="geometry" />
        </mxCell>
        <mxCell id="-fCuam2S3aZaANYgXB34-11" value="Withdraw Request" style="ellipse;whiteSpace=wrap;html=1;fillColor=#f5f5f5;fontColor=#333333;strokeColor=#666666;" vertex="1" parent="WIyWlLk6GJQsqaUBKTNV-1">
          <mxGeometry x="230" y="280" width="100" height="60" as="geometry" />
        </mxCell>
        <mxCell id="-fCuam2S3aZaANYgXB34-16" value="Approve&amp;nbsp;&lt;div&gt;Request&lt;/div&gt;" style="ellipse;whiteSpace=wrap;html=1;fillColor=#f5f5f5;fontColor=#333333;strokeColor=#666666;" vertex="1" parent="WIyWlLk6GJQsqaUBKTNV-1">
          <mxGeometry x="480" y="140" width="100" height="60" as="geometry" />
        </mxCell>
        <mxCell id="-fCuam2S3aZaANYgXB34-18" value="Award Time" style="ellipse;whiteSpace=wrap;html=1;fillColor=#f5f5f5;fontColor=#333333;strokeColor=#666666;" vertex="1" parent="WIyWlLk6GJQsqaUBKTNV-1">
          <mxGeometry x="480" y="210" width="100" height="60" as="geometry" />
        </mxCell>
        <mxCell id="-fCuam2S3aZaANYgXB34-39" value="&lt;b&gt;Vacation Time System&lt;/b&gt;" style="text;html=1;align=center;verticalAlign=middle;whiteSpace=wrap;rounded=0;fontSize=16;" vertex="1" parent="WIyWlLk6GJQsqaUBKTNV-1">
          <mxGeometry x="280" y="90" width="250" height="30" as="geometry" />
        </mxCell>
        <mxCell id="-fCuam2S3aZaANYgXB34-45" style="rounded=0;orthogonalLoop=1;jettySize=auto;html=1;entryX=1;entryY=0.5;entryDx=0;entryDy=0;fontSize=12;endArrow=none;endFill=0;sourcePerimeterSpacing=0;" edge="1" parent="WIyWlLk6GJQsqaUBKTNV-1" source="-fCuam2S3aZaANYgXB34-40" target="-fCuam2S3aZaANYgXB34-41">
          <mxGeometry relative="1" as="geometry" />
        </mxCell>
        <mxCell id="-fCuam2S3aZaANYgXB34-46" style="rounded=0;orthogonalLoop=1;jettySize=auto;html=1;fontSize=12;endArrow=none;endFill=0;sourcePerimeterSpacing=0;" edge="1" parent="WIyWlLk6GJQsqaUBKTNV-1" source="-fCuam2S3aZaANYgXB34-40" target="-fCuam2S3aZaANYgXB34-42">
          <mxGeometry relative="1" as="geometry" />
        </mxCell>
        <mxCell id="-fCuam2S3aZaANYgXB34-47" style="rounded=0;orthogonalLoop=1;jettySize=auto;html=1;entryX=1;entryY=0.5;entryDx=0;entryDy=0;fontSize=12;endArrow=none;endFill=0;sourcePerimeterSpacing=0;" edge="1" parent="WIyWlLk6GJQsqaUBKTNV-1" source="-fCuam2S3aZaANYgXB34-40" target="-fCuam2S3aZaANYgXB34-43">
          <mxGeometry relative="1" as="geometry" />
        </mxCell>
        <mxCell id="-fCuam2S3aZaANYgXB34-56" style="edgeStyle=none;curved=1;rounded=0;orthogonalLoop=1;jettySize=auto;html=1;entryX=1;entryY=0.5;entryDx=0;entryDy=0;fontSize=12;startSize=8;endSize=8;endArrow=none;endFill=0;" edge="1" parent="WIyWlLk6GJQsqaUBKTNV-1" source="-fCuam2S3aZaANYgXB34-40" target="-fCuam2S3aZaANYgXB34-44">
          <mxGeometry relative="1" as="geometry" />
        </mxCell>
        <mxCell id="-fCuam2S3aZaANYgXB34-40" value="HR Clerk" style="shape=umlActor;verticalLabelPosition=bottom;verticalAlign=top;html=1;outlineConnect=0;" vertex="1" parent="WIyWlLk6GJQsqaUBKTNV-1">
          <mxGeometry x="670" y="414.5" width="30" height="65.5" as="geometry" />
        </mxCell>
        <mxCell id="-fCuam2S3aZaANYgXB34-41" value="Manage Locations" style="ellipse;whiteSpace=wrap;html=1;fillColor=#f5f5f5;fontColor=#333333;strokeColor=#666666;" vertex="1" parent="WIyWlLk6GJQsqaUBKTNV-1">
          <mxGeometry x="480" y="310" width="100" height="60" as="geometry" />
        </mxCell>
        <mxCell id="-fCuam2S3aZaANYgXB34-42" value="Edit Emp&amp;nbsp;&lt;div&gt;Record&lt;/div&gt;" style="ellipse;whiteSpace=wrap;html=1;fillColor=#f5f5f5;fontColor=#333333;strokeColor=#666666;" vertex="1" parent="WIyWlLk6GJQsqaUBKTNV-1">
          <mxGeometry x="480" y="380" width="100" height="60" as="geometry" />
        </mxCell>
        <mxCell id="-fCuam2S3aZaANYgXB34-43" value="Manage Leave Categories" style="ellipse;whiteSpace=wrap;html=1;fillColor=#f5f5f5;fontColor=#333333;strokeColor=#666666;" vertex="1" parent="WIyWlLk6GJQsqaUBKTNV-1">
          <mxGeometry x="480" y="454.5" width="100" height="60" as="geometry" />
        </mxCell>
        <mxCell id="-fCuam2S3aZaANYgXB34-44" value="Override Leave Records" style="ellipse;whiteSpace=wrap;html=1;fillColor=#f5f5f5;fontColor=#333333;strokeColor=#666666;" vertex="1" parent="WIyWlLk6GJQsqaUBKTNV-1">
          <mxGeometry x="480" y="530" width="100" height="60" as="geometry" />
        </mxCell>
        <mxCell id="-fCuam2S3aZaANYgXB34-52" style="rounded=0;orthogonalLoop=1;jettySize=auto;html=1;fontSize=12;startSize=8;endSize=8;endArrow=none;endFill=0;sourcePerimeterSpacing=0;" edge="1" parent="WIyWlLk6GJQsqaUBKTNV-1" source="-fCuam2S3aZaANYgXB34-49" target="-fCuam2S3aZaANYgXB34-50">
          <mxGeometry relative="1" as="geometry" />
        </mxCell>
        <mxCell id="-fCuam2S3aZaANYgXB34-49" value="Sys Admin" style="shape=umlActor;verticalLabelPosition=bottom;verticalAlign=top;html=1;outlineConnect=0;" vertex="1" parent="WIyWlLk6GJQsqaUBKTNV-1">
          <mxGeometry x="100" y="474.5" width="30" height="60" as="geometry" />
        </mxCell>
        <mxCell id="-fCuam2S3aZaANYgXB34-50" value="Back Up Logs" style="ellipse;whiteSpace=wrap;html=1;fillColor=#f5f5f5;fontColor=#333333;strokeColor=#666666;" vertex="1" parent="WIyWlLk6GJQsqaUBKTNV-1">
          <mxGeometry x="230" y="474.5" width="100" height="60" as="geometry" />
        </mxCell>
      </root>
    </mxGraphModel>
  </diagram>
</mxfile>
